<svg width="52" height="47" viewBox="0 0 52 47" fill="none" xmlns="http://www.w3.org/2000/svg">
<path d="M26 0C11.6637 0 0 10.5422 0 23.5C0 36.4578 11.6637 47 26 47C40.3363 47 52 36.4578 52 23.5C52 10.5422 40.3363 0 26 0ZM39.5312 15.6241L22.7313 33.701C22.547 33.8994 22.3177 34.0597 22.0589 34.171C21.8001 34.2823 21.5178 34.342 21.2313 34.3462H21.1975C20.9172 34.3461 20.64 34.2927 20.384 34.1895C20.1279 34.0864 19.8987 33.9357 19.7113 33.7474L12.5112 26.5166C12.3284 26.3413 12.1862 26.1347 12.0929 25.909C11.9996 25.6833 11.9572 25.4431 11.9681 25.2024C11.9791 24.9617 12.0431 24.7253 12.1565 24.5073C12.27 24.2893 12.4305 24.094 12.6286 23.9328C12.8267 23.7716 13.0585 23.6479 13.3103 23.5689C13.5621 23.4898 13.8288 23.4571 14.0948 23.4725C14.3608 23.488 14.6207 23.5514 14.8592 23.6589C15.0978 23.7665 15.3101 23.916 15.4837 24.0988L21.145 29.784L36.4688 13.299C36.8125 12.9398 37.2988 12.7173 37.8226 12.6795C38.3463 12.6418 38.8655 12.7919 39.2678 13.0974C39.6701 13.4028 39.9233 13.8391 39.9726 14.3119C40.0219 14.7847 39.8634 15.2561 39.5312 15.6241Z" fill="#7537D8"/>
</svg>
